ffmpeg started on 2026-01-13 at 11:32:33
Report written to "D:\Convert\FFMetrics\reports\psnr_report-6.txt"
Log level: 32
Command line:
ffmpeg -hide_banner -nostdin -r 24000/1001 -i "F:\\Convert\\files\\[DC] Make Heroine ga Oosugiru - 07_Telegram_HEVC(79).mkv" -r 24000/1001 -i "F:\\Convert\\files\\[DC] Make Heroine ga Oosugiru - 07_Telegram.mp4" -lavfi "[0:v]settb=AVTB,setpts=PTS-STARTPTS,format=pix_fmts=yuv420p10le,fps=24000/1001,scale=1920:1080:flags=lanczos:param0=3:out_range=limited:out_color_matrix=bt709:out_chroma_loc=left,setsar=1/1,setdar=(1920/1080)*(1/1),colorspace=format=yuv420p10:range=tv:primaries=bt709:trc=bt709:space=bt709:fast=0[main];[1:v]settb=AVTB,setpts=PTS-STARTPTS,format=pix_fmts=yuv420p,fps=24000/1001,scale=1920:1080:flags=lanczos:param0=3:out_range=limited:out_color_matrix=bt709:out_chroma_loc=left,setsar=1.000,setdar=1.778,colorspace=format=yuv420p:range=tv:primaries=bt709:trc=bt709:space=bt709:fast=0[ref];[main][ref]psnr=eof_action=endall:stats_file='D\\:/Convert/FFMetrics/logs/psnr_logfile-6.txt'" -f null -
Input #0, matroska,webm, from 'F:\Convert\files\[DC] Make Heroine ga Oosugiru - 07_Telegram_HEVC(79).mkv':
  Metadata:
    COMPATIBLE_BRANDS: isomiso2avc1mp41
    MAJOR_BRAND     : isom
    MINOR_VERSION   : 512
    ENCODER         : Lavf61.7.100
  Duration: 00:24:06.79, start: -0.021000, bitrate: 1166 kb/s
  Stream #0:0: Video: hevc (Main 10), yuv420p10le(tv, bt709, progressive), 1920x1080 [SAR 1:1 DAR 16:9], 23.98 fps, 23.98 tbr, 1k tbn (default)
      Metadata:
        HANDLER_NAME    : VideoHandler
        VENDOR_ID       : [0][0][0][0]
        ENCODER         : Lavc61.19.100 libx265
        BPS             : 969348
        DURATION        : 00:24:06.569708333
        NUMBER_OF_FRAMES: 34683
        NUMBER_OF_BYTES : 175278737
        _STATISTICS_WRITING_APP: mkvpropedit v94.0 ('Initiate') 64-bit
        _STATISTICS_WRITING_DATE_UTC: 2026-01-11 15:41:51
        _STATISTICS_TAGS: BPS DURATION NUMBER_OF_FRAMES NUMBER_OF_BYTES
  Stream #0:1: Audio: aac (LC), 48000 Hz, stereo, fltp (default)
      Metadata:
        HANDLER_NAME    : SoundHandler
        VENDOR_ID       : [0][0][0][0]
        ENCODER         : Lavc61.19.100 aac
        BPS             : 193194
        DURATION        : 00:24:06.784000000
        NUMBER_OF_FRAMES: 67819
        NUMBER_OF_BYTES : 34938755
        _STATISTICS_WRITING_APP: mkvpropedit v94.0 ('Initiate') 64-bit
        _STATISTICS_WRITING_DATE_UTC: 2026-01-11 15:41:51
        _STATISTICS_TAGS: BPS DURATION NUMBER_OF_FRAMES NUMBER_OF_BYTES
Input #1, mov,mp4,m4a,3gp,3g2,mj2, from 'F:\Convert\files\[DC] Make Heroine ga Oosugiru - 07_Telegram.mp4':
  Metadata:
    major_brand     : isom
    minor_version   : 512
    compatible_brands: isomiso2avc1mp41
    encoder         : Lavf60.16.100
  Duration: 00:24:06.74, start: 0.000000, bitrate: 3764 kb/s
  Stream #1:0[0x1](und): Video: h264 (High) (avc1 / 0x31637661), yuv420p(tv, bt709, progressive), 1920x1080 [SAR 1:1 DAR 16:9], 3616 kb/s, 23.98 fps, 23.98 tbr, 24k tbn (default)
      Metadata:
        handler_name    : VideoHandler
        vendor_id       : [0][0][0][0]
        encoder         : Lavc60.31.102 h264_qsv
  Stream #1:1[0x2](und): Audio: aac (HE-AACv2) (mp4a / 0x6134706D), 48000 Hz, stereo, fltp, 144 kb/s (default)
      Metadata:
        handler_name    : SoundHandler
        vendor_id       : [0][0][0][0]
Stream mapping:
  Stream #0:0 (hevc) -> settb:default
  Stream #1:0 (h264) -> settb:default
  psnr:default -> Stream #0:0 (wrapped_avframe)
  Stream #0:1 -> #0:1 (aac (native) -> pcm_s16le (native))
Output #0, null, to 'pipe:':
  Metadata:
    COMPATIBLE_BRANDS: isomiso2avc1mp41
    MAJOR_BRAND     : isom
    MINOR_VERSION   : 512
    encoder         : Lavf61.7.100
  Stream #0:0: Video: wrapped_avframe, yuv420p10le(tv, bt709, progressive), 1920x1080 [SAR 1:1 DAR 16:9], q=2-31, 200 kb/s, 23.98 fps, 23.98 tbn
      Metadata:
        encoder         : Lavc61.19.100 wrapped_avframe
  Stream #0:1: Audio: pcm_s16le, 48000 Hz, stereo, s16, 1536 kb/s (default)
      Metadata:
        HANDLER_NAME    : SoundHandler
        VENDOR_ID       : [0][0][0][0]
        _STATISTICS_TAGS: BPS DURATION NUMBER_OF_FRAMES NUMBER_OF_BYTES
        BPS             : 193194
        DURATION        : 00:24:06.784000000
        NUMBER_OF_FRAMES: 67819
        NUMBER_OF_BYTES : 34938755
        _STATISTICS_WRITING_APP: mkvpropedit v94.0 ('Initiate') 64-bit
        _STATISTICS_WRITING_DATE_UTC: 2026-01-11 15:41:51
        encoder         : Lavc61.19.100 pcm_s16le
frame=  130 fps=0.0 q=-0.0 size=N/A time=00:00:05.42 bitrate=N/A speed=10.4x    frame=  316 fps=305 q=-0.0 size=N/A time=00:00:13.17 bitrate=N/A speed=12.7x    frame=  510 fps=327 q=-0.0 size=N/A time=00:00:21.27 bitrate=N/A speed=13.6x    frame=  699 fps=335 q=-0.0 size=N/A time=00:00:29.15 bitrate=N/A speed=  14x    frame=  880 fps=339 q=-0.0 size=N/A time=00:00:36.70 bitrate=N/A speed=14.1x    frame=  994 fps=320 q=-0.0 size=N/A time=00:00:41.45 bitrate=N/A speed=13.3x    frame= 1152 fps=317 q=-0.0 size=N/A time=00:00:48.04 bitrate=N/A speed=13.2x    frame= 1310 fps=316 q=-0.0 size=N/A time=00:00:54.63 bitrate=N/A speed=13.2x    frame= 1471 fps=316 q=-0.0 size=N/A time=00:01:01.35 bitrate=N/A speed=13.2x    frame= 1618 fps=312 q=-0.0 size=N/A time=00:01:07.48 bitrate=N/A speed=  13x    frame= 1769 fps=311 q=-0.0 size=N/A time=00:01:13.78 bitrate=N/A speed=  13x    frame= 1917 fps=309 q=-0.0 size=N/A time=00:01:19.95 bitrate=N/A speed=12.9x    frame= 2062 fps=306 q=-0.0 size=N/A time=00:01:26.00 bitrate=N/A speed=12.8x    frame= 2153 fps=297 q=-0.0 size=N/A time=00:01:29.79 bitrate=N/A speed=12.4x    frame= 2277 fps=294 q=-0.0 size=N/A time=00:01:34.96 bitrate=N/A speed=12.2x    frame= 2423 fps=293 q=-0.0 size=N/A time=00:01:41.05 bitrate=N/A speed=12.2x    frame= 2551 fps=290 q=-0.0 size=N/A time=00:01:46.39 bitrate=N/A speed=12.1x    frame= 2723 fps=293 q=-0.0 size=N/A time=00:01:53.57 bitrate=N/A speed=12.2x    frame= 2894 fps=295 q=-0.0 size=N/A time=00:02:00.70 bitrate=N/A speed=12.3x    frame= 3058 fps=296 q=-0.0 size=N/A time=00:02:07.54 bitrate=N/A speed=12.3x    frame= 3251 fps=300 q=-0.0 size=N/A time=00:02:15.59 bitrate=N/A speed=12.5x    frame= 3441 fps=303 q=-0.0 size=N/A time=00:02:23.51 bitrate=N/A speed=12.6x    frame= 3617 fps=305 q=-0.0 size=N/A time=00:02:30.85 bitrate=N/A speed=12.7x    frame= 3810 fps=307 q=-0.0 size=N/A time=00:02:38.90 bitrate=N/A speed=12.8x    frame= 3992 fps=309 q=-0.0 size=N/A time=00:02:46.49 bitrate=N/A speed=12.9x    frame= 4180 fps=311 q=-0.0 size=N/A time=00:02:54.34 bitrate=N/A speed=  13x    frame= 4374 fps=314 q=-0.0 size=N/A time=00:03:02.43 bitrate=N/A speed=13.1x    frame= 4506 fps=312 q=-0.0 size=N/A time=00:03:07.93 bitrate=N/A speed=  13x    frame= 4683 fps=313 q=-0.0 size=N/A time=00:03:15.32 bitrate=N/A speed=  13x    frame= 4872 fps=315 q=-0.0 size=N/A time=00:03:23.20 bitrate=N/A speed=13.1x    frame= 5064 fps=316 q=-0.0 size=N/A time=00:03:31.21 bitrate=N/A speed=13.2x    frame= 5244 fps=318 q=-0.0 size=N/A time=00:03:38.71 bitrate=N/A speed=13.2x    frame= 5436 fps=319 q=-0.0 size=N/A time=00:03:46.72 bitrate=N/A speed=13.3x    frame= 5620 fps=320 q=-0.0 size=N/A time=00:03:54.40 bitrate=N/A speed=13.4x    frame= 5809 fps=322 q=-0.0 size=N/A time=00:04:02.28 bitrate=N/A speed=13.4x    frame= 6007 fps=323 q=-0.0 size=N/A time=00:04:10.54 bitrate=N/A speed=13.5x    frame= 6198 fps=324 q=-0.0 size=N/A time=00:04:18.50 bitrate=N/A speed=13.5x    frame= 6383 fps=325 q=-0.0 size=N/A time=00:04:26.22 bitrate=N/A speed=13.6x    frame= 6571 fps=326 q=-0.0 size=N/A time=00:04:34.06 bitrate=N/A speed=13.6x    frame= 6758 fps=327 q=-0.0 size=N/A time=00:04:41.86 bitrate=N/A speed=13.7x    frame= 6916 fps=327 q=-0.0 size=N/A time=00:04:48.45 bitrate=N/A speed=13.6x    frame= 7079 fps=326 q=-0.0 size=N/A time=00:04:55.25 bitrate=N/A speed=13.6x    frame= 7263 fps=327 q=-0.0 size=N/A time=00:05:02.92 bitrate=N/A speed=13.6x    frame= 7449 fps=328 q=-0.0 size=N/A time=00:05:10.68 bitrate=N/A speed=13.7x    frame= 7628 fps=328 q=-0.0 size=N/A time=00:05:18.15 bitrate=N/A speed=13.7x    frame= 7809 fps=329 q=-0.0 size=N/A time=00:05:25.70 bitrate=N/A speed=13.7x    frame= 7973 fps=329 q=-0.0 size=N/A time=00:05:32.54 bitrate=N/A speed=13.7x    frame= 8175 fps=330 q=-0.0 size=N/A time=00:05:40.96 bitrate=N/A speed=13.8x    frame= 8367 fps=331 q=-0.0 size=N/A time=00:05:48.97 bitrate=N/A speed=13.8x    frame= 8553 fps=332 q=-0.0 size=N/A time=00:05:56.73 bitrate=N/A speed=13.8x    frame= 8745 fps=332 q=-0.0 size=N/A time=00:06:04.73 bitrate=N/A speed=13.9x    frame= 8929 fps=333 q=-0.0 size=N/A time=00:06:12.41 bitrate=N/A speed=13.9x    frame= 9122 fps=334 q=-0.0 size=N/A time=00:06:20.46 bitrate=N/A speed=13.9x    frame= 9314 fps=334 q=-0.0 size=N/A time=00:06:28.47 bitrate=N/A speed=13.9x    frame= 9447 fps=333 q=-0.0 size=N/A time=00:06:34.01 bitrate=N/A speed=13.9x    frame= 9639 fps=334 q=-0.0 size=N/A time=00:06:42.02 bitrate=N/A speed=13.9x    frame= 9830 fps=334 q=-0.0 size=N/A time=00:06:49.99 bitrate=N/A speed=13.9x    frame=10030 fps=335 q=-0.0 size=N/A time=00:06:58.33 bitrate=N/A speed=  14x    frame=10214 fps=335 q=-0.0 size=N/A time=00:07:06.00 bitrate=N/A speed=  14x    frame=10406 fps=336 q=-0.0 size=N/A time=00:07:14.01 bitrate=N/A speed=  14x    frame=10575 fps=336 q=-0.0 size=N/A time=00:07:21.06 bitrate=N/A speed=  14x    frame=10755 fps=336 q=-0.0 size=N/A time=00:07:28.57 bitrate=N/A speed=  14x    frame=10946 fps=337 q=-0.0 size=N/A time=00:07:36.53 bitrate=N/A speed=  14x    frame=11131 fps=337 q=-0.0 size=N/A time=00:07:44.25 bitrate=N/A speed=14.1x    frame=11308 fps=337 q=-0.0 size=N/A time=00:07:51.63 bitrate=N/A speed=14.1x    frame=11493 fps=337 q=-0.0 size=N/A time=00:07:59.35 bitrate=N/A speed=14.1x    frame=11688 fps=338 q=-0.0 size=N/A time=00:08:07.48 bitrate=N/A speed=14.1x    frame=11854 fps=338 q=-0.0 size=N/A time=00:08:14.41 bitrate=N/A speed=14.1x    frame=12023 fps=337 q=-0.0 size=N/A time=00:08:21.45 bitrate=N/A speed=14.1x    frame=12208 fps=338 q=-0.0 size=N/A time=00:08:29.17 bitrate=N/A speed=14.1x    frame=12402 fps=338 q=-0.0 size=N/A time=00:08:37.26 bitrate=N/A speed=14.1x    frame=12590 fps=339 q=-0.0 size=N/A time=00:08:45.10 bitrate=N/A speed=14.1x    frame=12782 fps=339 q=-0.0 size=N/A time=00:08:53.11 bitrate=N/A speed=14.1x    frame=12963 fps=339 q=-0.0 size=N/A time=00:09:00.66 bitrate=N/A speed=14.2x    frame=13157 fps=340 q=-0.0 size=N/A time=00:09:08.75 bitrate=N/A speed=14.2x    frame=13334 fps=340 q=-0.0 size=N/A time=00:09:16.13 bitrate=N/A speed=14.2x    frame=13519 fps=340 q=-0.0 size=N/A time=00:09:23.85 bitrate=N/A speed=14.2x    frame=13705 fps=340 q=-0.0 size=N/A time=00:09:31.61 bitrate=N/A speed=14.2x    frame=13893 fps=341 q=-0.0 size=N/A time=00:09:39.45 bitrate=N/A speed=14.2x    frame=14082 fps=341 q=-0.0 size=N/A time=00:09:47.33 bitrate=N/A speed=14.2x    frame=14253 fps=341 q=-0.0 size=N/A time=00:09:54.46 bitrate=N/A speed=14.2x    frame=14397 fps=340 q=-0.0 size=N/A time=00:10:00.47 bitrate=N/A speed=14.2x    frame=14579 fps=340 q=-0.0 size=N/A time=00:10:08.06 bitrate=N/A speed=14.2x    frame=14774 fps=341 q=-0.0 size=N/A time=00:10:16.19 bitrate=N/A speed=14.2x    frame=14963 fps=341 q=-0.0 size=N/A time=00:10:24.08 bitrate=N/A speed=14.2x    frame=15132 fps=341 q=-0.0 size=N/A time=00:10:31.13 bitrate=N/A speed=14.2x    frame=15314 fps=341 q=-0.0 size=N/A time=00:10:38.72 bitrate=N/A speed=14.2x    frame=15497 fps=341 q=-0.0 size=N/A time=00:10:46.35 bitrate=N/A speed=14.2x    frame=15691 fps=342 q=-0.0 size=N/A time=00:10:54.44 bitrate=N/A speed=14.2x    frame=15878 fps=342 q=-0.0 size=N/A time=00:11:02.24 bitrate=N/A speed=14.3x    frame=16072 fps=342 q=-0.0 size=N/A time=00:11:10.33 bitrate=N/A speed=14.3x    frame=16272 fps=343 q=-0.0 size=N/A time=00:11:18.67 bitrate=N/A speed=14.3x    frame=16460 fps=343 q=-0.0 size=N/A time=00:11:26.51 bitrate=N/A speed=14.3x    frame=16651 fps=343 q=-0.0 size=N/A time=00:11:34.48 bitrate=N/A speed=14.3x    frame=16831 fps=343 q=-0.0 size=N/A time=00:11:41.99 bitrate=N/A speed=14.3x    frame=16984 fps=343 q=-0.0 size=N/A time=00:11:48.37 bitrate=N/A speed=14.3x    frame=17181 fps=343 q=-0.0 size=N/A time=00:11:56.59 bitrate=N/A speed=14.3x    frame=17372 fps=343 q=-0.0 size=N/A time=00:12:04.55 bitrate=N/A speed=14.3x    frame=17551 fps=344 q=-0.0 size=N/A time=00:12:12.02 bitrate=N/A speed=14.3x    frame=17743 fps=344 q=-0.0 size=N/A time=00:12:20.03 bitrate=N/A speed=14.3x    frame=17918 fps=344 q=-0.0 size=N/A time=00:12:27.32 bitrate=N/A speed=14.3x    frame=18103 fps=344 q=-0.0 size=N/A time=00:12:35.04 bitrate=N/A speed=14.3x    frame=18291 fps=344 q=-0.0 size=N/A time=00:12:42.88 bitrate=N/A speed=14.3x    frame=18471 fps=344 q=-0.0 size=N/A time=00:12:50.39 bitrate=N/A speed=14.4x    frame=18660 fps=344 q=-0.0 size=N/A time=00:12:58.27 bitrate=N/A speed=14.4x    frame=18849 fps=345 q=-0.0 size=N/A time=00:13:06.16 bitrate=N/A speed=14.4x    frame=19033 fps=345 q=-0.0 size=N/A time=00:13:13.83 bitrate=N/A speed=14.4x    frame=19233 fps=345 q=-0.0 size=N/A time=00:13:22.17 bitrate=N/A speed=14.4x    frame=19379 fps=344 q=-0.0 size=N/A time=00:13:28.26 bitrate=N/A speed=14.4x    frame=19563 fps=345 q=-0.0 size=N/A time=00:13:35.94 bitrate=N/A speed=14.4x    frame=19749 fps=345 q=-0.0 size=N/A time=00:13:43.69 bitrate=N/A speed=14.4x    frame=19944 fps=345 q=-0.0 size=N/A time=00:13:51.83 bitrate=N/A speed=14.4x    frame=20132 fps=345 q=-0.0 size=N/A time=00:13:59.67 bitrate=N/A speed=14.4x    frame=20319 fps=345 q=-0.0 size=N/A time=00:14:07.47 bitrate=N/A speed=14.4x    frame=20486 fps=345 q=-0.0 size=N/A time=00:14:14.43 bitrate=N/A speed=14.4x    frame=20652 fps=345 q=-0.0 size=N/A time=00:14:21.36 bitrate=N/A speed=14.4x    frame=20833 fps=345 q=-0.0 size=N/A time=00:14:28.90 bitrate=N/A speed=14.4x    frame=21020 fps=345 q=-0.0 size=N/A time=00:14:36.70 bitrate=N/A speed=14.4x    frame=21212 fps=345 q=-0.0 size=N/A time=00:14:44.71 bitrate=N/A speed=14.4x    frame=21406 fps=346 q=-0.0 size=N/A time=00:14:52.80 bitrate=N/A speed=14.4x    frame=21591 fps=346 q=-0.0 size=N/A time=00:15:00.52 bitrate=N/A speed=14.4x    frame=21785 fps=346 q=-0.0 size=N/A time=00:15:08.61 bitrate=N/A speed=14.4x    frame=21915 fps=345 q=-0.0 size=N/A time=00:15:14.03 bitrate=N/A speed=14.4x    frame=22108 fps=346 q=-0.0 size=N/A time=00:15:22.08 bitrate=N/A speed=14.4x    frame=22290 fps=346 q=-0.0 size=N/A time=00:15:29.67 bitrate=N/A speed=14.4x    frame=22483 fps=346 q=-0.0 size=N/A time=00:15:37.72 bitrate=N/A speed=14.4x    frame=22669 fps=346 q=-0.0 size=N/A time=00:15:45.48 bitrate=N/A speed=14.4x    frame=22846 fps=346 q=-0.0 size=N/A time=00:15:52.86 bitrate=N/A speed=14.4x    frame=23028 fps=346 q=-0.0 size=N/A time=00:16:00.45 bitrate=N/A speed=14.4x    frame=23185 fps=346 q=-0.0 size=N/A time=00:16:07.00 bitrate=N/A speed=14.4x    frame=23302 fps=345 q=-0.0 size=N/A time=00:16:11.88 bitrate=N/A speed=14.4x    frame=23495 fps=345 q=-0.0 size=N/A time=00:16:19.93 bitrate=N/A speed=14.4x    frame=23694 fps=345 q=-0.0 size=N/A time=00:16:28.23 bitrate=N/A speed=14.4x    frame=23872 fps=345 q=-0.0 size=N/A time=00:16:35.66 bitrate=N/A speed=14.4x    frame=24069 fps=345 q=-0.0 size=N/A time=00:16:43.87 bitrate=N/A speed=14.4x    frame=24240 fps=345 q=-0.0 size=N/A time=00:16:51.01 bitrate=N/A speed=14.4x    frame=24439 fps=346 q=-0.0 size=N/A time=00:16:59.30 bitrate=N/A speed=14.4x    frame=24631 fps=346 q=-0.0 size=N/A time=00:17:07.31 bitrate=N/A speed=14.4x    frame=24804 fps=346 q=-0.0 size=N/A time=00:17:14.53 bitrate=N/A speed=14.4x    frame=24991 fps=346 q=-0.0 size=N/A time=00:17:22.33 bitrate=N/A speed=14.4x    frame=25181 fps=346 q=-0.0 size=N/A time=00:17:30.25 bitrate=N/A speed=14.4x    frame=25357 fps=346 q=-0.0 size=N/A time=00:17:37.59 bitrate=N/A speed=14.4x    frame=25547 fps=346 q=-0.0 size=N/A time=00:17:45.52 bitrate=N/A speed=14.4x    frame=25688 fps=346 q=-0.0 size=N/A time=00:17:51.40 bitrate=N/A speed=14.4x    frame=25884 fps=346 q=-0.0 size=N/A time=00:17:59.57 bitrate=N/A speed=14.4x    frame=26070 fps=346 q=-0.0 size=N/A time=00:18:07.33 bitrate=N/A speed=14.4x    frame=26265 fps=346 q=-0.0 size=N/A time=00:18:15.46 bitrate=N/A speed=14.4x    frame=26453 fps=346 q=-0.0 size=N/A time=00:18:23.31 bitrate=N/A speed=14.4x    frame=26646 fps=346 q=-0.0 size=N/A time=00:18:31.36 bitrate=N/A speed=14.5x    frame=26823 fps=346 q=-0.0 size=N/A time=00:18:38.74 bitrate=N/A speed=14.5x    frame=26998 fps=346 q=-0.0 size=N/A time=00:18:46.04 bitrate=N/A speed=14.5x    frame=27167 fps=346 q=-0.0 size=N/A time=00:18:53.09 bitrate=N/A speed=14.4x    frame=27353 fps=346 q=-0.0 size=N/A time=00:19:00.84 bitrate=N/A speed=14.4x    frame=27528 fps=346 q=-0.0 size=N/A time=00:19:08.14 bitrate=N/A speed=14.4x    frame=27717 fps=346 q=-0.0 size=N/A time=00:19:16.02 bitrate=N/A speed=14.5x    frame=27906 fps=347 q=-0.0 size=N/A time=00:19:23.91 bitrate=N/A speed=14.5x    frame=28071 fps=346 q=-0.0 size=N/A time=00:19:30.79 bitrate=N/A speed=14.5x    frame=28206 fps=346 q=-0.0 size=N/A time=00:19:36.42 bitrate=N/A speed=14.4x    frame=28393 fps=346 q=-0.0 size=N/A time=00:19:44.22 bitrate=N/A speed=14.4x    frame=28580 fps=346 q=-0.0 size=N/A time=00:19:52.02 bitrate=N/A speed=14.4x    frame=28760 fps=346 q=-0.0 size=N/A time=00:19:59.53 bitrate=N/A speed=14.4x    frame=28918 fps=346 q=-0.0 size=N/A time=00:20:06.12 bitrate=N/A speed=14.4x    frame=29075 fps=346 q=-0.0 size=N/A time=00:20:12.66 bitrate=N/A speed=14.4x    frame=29250 fps=346 q=-0.0 size=N/A time=00:20:19.96 bitrate=N/A speed=14.4x    frame=29420 fps=345 q=-0.0 size=N/A time=00:20:27.05 bitrate=N/A speed=14.4x    frame=29575 fps=345 q=-0.0 size=N/A time=00:20:33.52 bitrate=N/A speed=14.4x    frame=29750 fps=345 q=-0.0 size=N/A time=00:20:40.82 bitrate=N/A speed=14.4x    frame=29910 fps=345 q=-0.0 size=N/A time=00:20:47.49 bitrate=N/A speed=14.4x    frame=30068 fps=345 q=-0.0 size=N/A time=00:20:54.08 bitrate=N/A speed=14.4x    frame=30248 fps=345 q=-0.0 size=N/A time=00:21:01.59 bitrate=N/A speed=14.4x    frame=30405 fps=344 q=-0.0 size=N/A time=00:21:08.14 bitrate=N/A speed=14.4x    frame=30584 fps=345 q=-0.0 size=N/A time=00:21:15.60 bitrate=N/A speed=14.4x    frame=30778 fps=345 q=-0.0 size=N/A time=00:21:23.69 bitrate=N/A speed=14.4x    frame=30962 fps=345 q=-0.0 size=N/A time=00:21:31.37 bitrate=N/A speed=14.4x    frame=31145 fps=345 q=-0.0 size=N/A time=00:21:39.00 bitrate=N/A speed=14.4x    frame=31326 fps=345 q=-0.0 size=N/A time=00:21:46.55 bitrate=N/A speed=14.4x    frame=31502 fps=345 q=-0.0 size=N/A time=00:21:53.89 bitrate=N/A speed=14.4x    frame=31690 fps=345 q=-0.0 size=N/A time=00:22:01.73 bitrate=N/A speed=14.4x    frame=31856 fps=345 q=-0.0 size=N/A time=00:22:08.66 bitrate=N/A speed=14.4x    frame=32029 fps=345 q=-0.0 size=N/A time=00:22:15.87 bitrate=N/A speed=14.4x    frame=32221 fps=345 q=-0.0 size=N/A time=00:22:23.88 bitrate=N/A speed=14.4x    frame=32395 fps=345 q=-0.0 size=N/A time=00:22:31.14 bitrate=N/A speed=14.4x    frame=32585 fps=345 q=-0.0 size=N/A time=00:22:39.06 bitrate=N/A speed=14.4x    frame=32726 fps=345 q=-0.0 size=N/A time=00:22:44.94 bitrate=N/A speed=14.4x    frame=32839 fps=344 q=-0.0 size=N/A time=00:22:49.65 bitrate=N/A speed=14.3x    frame=33025 fps=344 q=-0.0 size=N/A time=00:22:57.41 bitrate=N/A speed=14.3x    frame=33196 fps=344 q=-0.0 size=N/A time=00:23:04.54 bitrate=N/A speed=14.3x    frame=33361 fps=344 q=-0.0 size=N/A time=00:23:11.43 bitrate=N/A speed=14.3x    frame=33514 fps=344 q=-0.0 size=N/A time=00:23:17.81 bitrate=N/A speed=14.3x    frame=33661 fps=343 q=-0.0 size=N/A time=00:23:23.94 bitrate=N/A speed=14.3x    frame=33791 fps=343 q=-0.0 size=N/A time=00:23:29.36 bitrate=N/A speed=14.3x    frame=33916 fps=342 q=-0.0 size=N/A time=00:23:34.57 bitrate=N/A speed=14.3x    frame=34077 fps=342 q=-0.0 size=N/A time=00:23:41.29 bitrate=N/A speed=14.3x    frame=34236 fps=342 q=-0.0 size=N/A time=00:23:47.92 bitrate=N/A speed=14.3x    frame=34367 fps=342 q=-0.0 size=N/A time=00:23:53.39 bitrate=N/A speed=14.2x    frame=34498 fps=341 q=-0.0 size=N/A time=00:23:58.85 bitrate=N/A speed=14.2x    [Parsed_psnr_16 @ 00000190f7a00bc0] PSNR y:49.438830 u:50.793796 v:50.876406 average:49.856232 min:38.039115 max:inf
[out#0/null @ 00000190ea968a00] video:14903KiB audio:271276KiB subtitle:0KiB other streams:0KiB global headers:0KiB muxing overhead: unknown
frame=34683 fps=341 q=-0.0 Lsize=N/A time=00:24:06.57 bitrate=N/A speed=14.2x    
